<svg xmlns="http://www.w3.org/2000/svg" width="19.001" height="17.895" viewBox="0 0 19.001 17.895">
  <path id="education-cap-svgrepo-com" d="M19.208,18.618a.508.508,0,0,0,.5-.613l-.32-1.515a.961.961,0,0,0-.031-1.418V9.812l-1.283.794v4.466a.961.961,0,0,0-.031,1.418L17.72,18a.508.508,0,0,0,.5.613Zm.435-11.875L11.3,1.575a1.51,1.51,0,0,0-1.59,0L1.358,6.743a.758.758,0,0,0,0,1.288L9.706,13.2a1.51,1.51,0,0,0,1.59,0L19.643,8.03a.758.758,0,0,0,0-1.288ZM10.5,14.707a2.789,2.789,0,0,1-1.47-.418L4.161,11.274v5.19C4.161,18,7,19.244,10.5,19.244s6.34-1.244,6.34-2.78v-5.19l-4.869,3.014A2.793,2.793,0,0,1,10.5,14.707Z" transform="translate(-1 -1.349)" fill="#151623"/>
</svg>
