<svg xmlns="http://www.w3.org/2000/svg" width="29.153" height="20.824" viewBox="0 0 29.153 20.824">
  <g id="noun-email-7452225" transform="translate(0 0)">
    <path id="Path_4928" data-name="Path 4928" d="M10.395,20.832,8.177,18.989a3.027,3.027,0,0,1,1.2-.239H32.281a3.027,3.027,0,0,1,1.2.239L31.26,20.832,21.5,28.922a1.066,1.066,0,0,1-1.343.01Zm24.635-.416-1.718,1.416-10.485,8.7a3.193,3.193,0,0,1-2,.708,3.144,3.144,0,0,1-1.989-.708l-10.5-8.7L6.626,20.416a3.117,3.117,0,0,0-.375,1.458V36.45a3.133,3.133,0,0,0,3.124,3.124H32.281A3.133,3.133,0,0,0,35.4,36.45V21.873a3.117,3.117,0,0,0-.375-1.458Z" transform="translate(-6.251 -18.75)" fill="#151623"/>
  </g>
</svg>
