<svg xmlns="http://www.w3.org/2000/svg" width="29.143" height="32.622" viewBox="0 0 29.143 32.622">
  <g id="layer6" transform="translate(0 0)">
    <path id="path2" d="M47.94,67.624V65.311L49.62,64H31.449L20.476,73.538h7.277c-.013.181-.019.344-.019.529a5.825,5.825,0,0,0,1.841,4.406,6.311,6.311,0,0,0,4.53,1.754,8.847,8.847,0,0,0,1.227-.087,3.793,3.793,0,0,0-.372,1.541A4.412,4.412,0,0,0,36.1,84.369q-5,.34-7.343,1.8A6.779,6.779,0,0,0,26.6,88.251a4.906,4.906,0,0,0-.814,2.715,4.6,4.6,0,0,0,.528,2.214,4.742,4.742,0,0,0,1.386,1.613,8.327,8.327,0,0,0,1.973,1.059,10.84,10.84,0,0,0,2.214.6,14.192,14.192,0,0,0,2.184.17,13.933,13.933,0,0,0,3.445-.441,12.881,12.881,0,0,0,3.243-1.316,7.026,7.026,0,0,0,2.457-2.355,6.122,6.122,0,0,0,.943-3.342,5.691,5.691,0,0,0-.573-2.561,6.129,6.129,0,0,0-1.4-1.9c-.552-.494-1.1-.948-1.658-1.357a9.141,9.141,0,0,1-1.4-1.258,1.941,1.941,0,0,1-.572-1.273,1.982,1.982,0,0,1,.443-1.212,7.238,7.238,0,0,1,1.071-1.13q.629-.542,1.257-1.2a5.593,5.593,0,0,0,1.071-1.7,5.967,5.967,0,0,0,.442-2.358,5.671,5.671,0,0,0-.641-2.83c-.05-.087-.1-.153-.159-.257l4.835-3.965v1.454c-.628.079-.563.454-.563.9V79.458a.923.923,0,0,0,.92.92h.339a.923.923,0,0,0,.92-.92V68.527c0-.448.066-.823-.557-.9Zm-9.121,18.9c.1.064.315.236.656.513a5.712,5.712,0,0,1,.7.63c.122.141.3.354.542.641a3.054,3.054,0,0,1,.486.742q.127.316.259.76a3.252,3.252,0,0,1,.126.9,3.528,3.528,0,0,1-1.67,3.216,7.385,7.385,0,0,1-3.988,1.043,9.923,9.923,0,0,1-2.3-.271,9.186,9.186,0,0,1-2.157-.816,4.373,4.373,0,0,1-1.657-1.512,4.022,4.022,0,0,1-.629-2.23,3.741,3.741,0,0,1,.716-2.286,4.462,4.462,0,0,1,1.872-1.471,10.421,10.421,0,0,1,2.341-.713,13.41,13.41,0,0,1,2.416-.217,5.236,5.236,0,0,1,.884.059q.058.028.657.473t.743.542Zm-.285-8.545a3.241,3.241,0,0,1-2.63,1.129,3.542,3.542,0,0,1-2.656-1.216,7.2,7.2,0,0,1-1.643-2.755,9.755,9.755,0,0,1-.5-3.028,4.826,4.826,0,0,1,.916-2.971,3.08,3.08,0,0,1,2.628-1.231A3.5,3.5,0,0,1,37.319,69.2a7.678,7.678,0,0,1,1.658,2.886,10.232,10.232,0,0,1,.5,3.057,4.291,4.291,0,0,1-.941,2.842Z" transform="translate(-20.477 -64)" fill="#151623"/>
  </g>
</svg>
