<svg xmlns="http://www.w3.org/2000/svg" width="30.724" height="30.722" viewBox="0 0 30.724 30.722">
  <g id="Page-1" transform="translate(-0.001 0)">
    <g id="Dribbble-Light-Preview" transform="translate(0.001 0)">
      <g id="icons">
        <path id="github-_142_" data-name="github-[#142]" d="M99.362,7399a15.558,15.558,0,0,1,15.362,15.745,15.728,15.728,0,0,1-10.5,14.947c-.779.155-1.055-.337-1.055-.752,0-.522.018-2.213.018-4.331a3.8,3.8,0,0,0-1.043-2.9c3.421-.4,7.016-1.721,7.016-7.773a6.127,6.127,0,0,0-1.582-4.224,5.814,5.814,0,0,0-.151-4.18s-1.287-.415-4.22,1.613a14.422,14.422,0,0,0-7.693,0c-2.936-2.028-4.226-1.613-4.226-1.613a5.837,5.837,0,0,0-.149,4.18,6.148,6.148,0,0,0-1.582,4.224c0,6.037,3.587,7.389,7,7.789a3.325,3.325,0,0,0-.976,2.105,3.232,3.232,0,0,1-4.47-1.321,3.232,3.232,0,0,0-2.355-1.615s-1.5-.029-.1.953a4.185,4.185,0,0,1,1.705,2.306s.9,2.81,5.176,1.856c.008,1.322.022,2.567.022,2.936,0,.415-.283.907-1.049.752A15.807,15.807,0,0,1,99.362,7399" transform="translate(-84 -7399)" fill="#151623" fill-rule="evenodd"/>
      </g>
    </g>
  </g>
</svg>
