<svg xmlns="http://www.w3.org/2000/svg" width="27.32" height="27.438" viewBox="0 0 27.32 27.438">
  <g id="Group_35074" data-name="Group 35074" transform="translate(0 0)">
    <path id="Path_4933" data-name="Path 4933" d="M73.927,100.15H70.9V79.1h3.027v21.05Z" transform="translate(-70.429 -72.731)" fill="#151623"/>
    <path id="Path_4934" data-name="Path 4934" d="M108.9,79.1h8.176c7.783,0,11.2,5.562,11.2,10.535,0,5.405-4.226,10.535-11.164,10.535H108.9Zm3.027,18.338h4.815c6.859,0,8.432-5.208,8.432-7.8,0-4.226-2.693-7.8-8.589-7.8h-4.658Z" transform="translate(-100.96 -72.731)" fill="#151623"/>
    <path id="Path_4935" data-name="Path 4935" d="M72.47,48.685A1.985,1.985,0,1,1,70.485,46.7,1.992,1.992,0,0,1,72.47,48.685Z" transform="translate(-68.5 -46.7)" fill="#151623"/>
  </g>
</svg>
