<svg xmlns="http://www.w3.org/2000/svg" width="31.649" height="28.91" viewBox="0 0 31.649 28.91">
  <g id="linked-in-logo-of-two-letters-svgrepo-com" transform="translate(0 0)">
    <g id="Group_35073" data-name="Group 35073" transform="translate(0 0)">
      <path id="Path_4929" data-name="Path 4929" d="M1.028,198.89H5.142a1.028,1.028,0,0,0,1.028-1.028V179.878a1.028,1.028,0,0,0-1.028-1.028H1.028A1.028,1.028,0,0,0,0,179.878v17.984A1.028,1.028,0,0,0,1.028,198.89Z" transform="translate(0 -169.979)" fill="#151623"/>
      <path id="Path_4930" data-name="Path 4930" d="M1.028,29.625H5.142A1.028,1.028,0,0,0,6.17,28.6V24.944a1.028,1.028,0,0,0-1.028-1.028H1.028A1.028,1.028,0,0,0,0,24.944V28.6A1.028,1.028,0,0,0,1.028,29.625Z" transform="translate(0 -23.916)" fill="#151623"/>
      <path id="Path_4931" data-name="Path 4931" d="M201.251,172.258a6.257,6.257,0,0,0-2.558-1.877,9.261,9.261,0,0,0-3.733-.735,9.142,9.142,0,0,0-7.025,3.164c-.382.42-.66.328-.66-.24V171.2a1.028,1.028,0,0,0-1.028-1.028h-3.675a1.028,1.028,0,0,0-1.028,1.028v17.984a1.028,1.028,0,0,0,1.028,1.028h4.114a1.028,1.028,0,0,0,1.028-1.028v-6.254a20.121,20.121,0,0,1,.472-5.358,4.425,4.425,0,0,1,1.746-2.327,4.948,4.948,0,0,1,2.877-.878,3.671,3.671,0,0,1,2.141.615,3.427,3.427,0,0,1,1.285,1.724,18.389,18.389,0,0,1,.4,4.886v7.594a1.028,1.028,0,0,0,1.028,1.028h4.114a1.028,1.028,0,0,0,1.028-1.028V179a19.288,19.288,0,0,0-.34-4.15A6.8,6.8,0,0,0,201.251,172.258Z" transform="translate(-171.15 -161.301)" fill="#151623"/>
    </g>
  </g>
</svg>
